<svg xmlns="http://www.w3.org/2000/svg" width="152.976" height="36" viewBox="0 0 152.976 36"><g fill="#84384f" color="#84384f" transform="translate(0 5.836835882375377) scale(0.0970844)"><svg width="288.409" height="250.569" x="0" y="0" viewBox="0 0 288.409 250.569"><g><path d="M285.815,98.711c-1.273-1.752-4.64,0.489-5.656-1.446c1.684-18.533-2.897-16.416-4.792-23.059 c-19.338-17.872-40.782-31.118-64.315-39.741c3.09-27.984-21.735-41.972-50.702-30.378c-3.208,4.832-3.983,12.571-0.677,23.834 c-4.713,1.668-9.432,3.332-14.154,5c-36.982-26.435-86.812,4.669-71.556,46.527c-18.958,4.324-36.735,6.268-50.342-0.292 c-12.739-5.784-23.854-9.328-23.617,2.809c6.52,15.285,11.283,31.183,9.688,49.244c4.412,6.229,10.917,7.838,19.52,4.817 c15.152-11.458,32.575-20.475,58.121-20.776c0.8,7.003,1.584,14.005,2.384,21.013c2.537,3.505,5.656,6.199,9.353,8.095 c13.005-0.05,25.566-2.902,37.436-9.891c2.078,1.796,4.156,3.593,6.238,5.39c2.547,26.651,45.402,30.758,54.76,7.601 c32.648-7.778,65.801-14.718,90.448-35.721C288.984,104.964,288.269,100.621,285.815,98.711z M237.719,80.228 c-4.64,0-8.405-3.055-8.405-6.821c0-3.766,3.766-6.821,8.405-6.821c4.63,0,8.391,3.055,8.391,6.821 C246.109,77.172,242.349,80.228,237.719,80.228z"/><path d="M269.276,227.808c-4.797-5.331-11.361-12.615-23.839-12.615c-13.113,0-19.855,6.86-25.27,12.378 c-4.64,4.719-7.699,7.838-14.451,7.838c-6.707,0-9.758-3.119-14.372-7.838c-5.404-5.518-12.127-12.378-25.211-12.378 c-12.931,0-19.545,6.899-24.865,12.438c-4.896,5.113-7.744,7.778-13.918,7.778c-6.875,0-9.979-3.13-14.684-7.867 c-5.458-5.509-12.255-12.349-25.442-12.349c-13.227,0-20.058,6.83-25.536,12.328c-4.738,4.748-7.868,7.888-14.807,7.888 c-6.723,0-9.782-3.119-14.407-7.838c-5.404-5.518-12.136-12.378-25.23-12.378v15.162c6.728,0,9.777,3.109,14.407,7.827 c5.409,5.518,12.136,12.388,25.23,12.388c13.227,0,20.058-6.84,25.536-12.338c4.738-4.748,7.862-7.877,14.807-7.877 c6.875,0,9.979,3.129,14.683,7.867c5.458,5.498,12.255,12.348,25.443,12.348c12.931,0,19.545-6.899,24.865-12.447 c4.896-5.103,7.743-7.768,13.918-7.768c6.707,0,9.758,3.109,14.372,7.827c5.404,5.518,12.127,12.388,25.211,12.388 c13.108,0,19.851-6.87,25.27-12.378c4.64-4.718,7.7-7.837,14.451-7.837c5.474,0,8.075,2.605,12.571,7.601 c4.787,5.32,11.356,12.614,23.834,12.614v-15.161C276.374,235.408,273.772,232.802,269.276,227.808z"/><path d="M269.276,190.741c-4.797-5.32-11.361-12.615-23.839-12.615c-13.113,0-19.855,6.86-25.27,12.379 c-4.64,4.718-7.699,7.837-14.451,7.837c-6.707,0-9.758-3.109-14.372-7.827c-5.404-5.519-12.127-12.389-25.211-12.389 c-12.931,0-19.545,6.9-24.865,12.447c-4.896,5.104-7.744,7.769-13.918,7.769c-6.875,0-9.979-3.129-14.684-7.867 c-5.458-5.498-12.255-12.349-25.442-12.349c-13.227,0-20.058,6.841-25.536,12.339c-4.738,4.748-7.868,7.877-14.807,7.877 c-6.723,0-9.782-3.109-14.407-7.827c-5.404-5.519-12.136-12.389-25.23-12.389v15.162c6.728,0,9.777,3.119,14.407,7.838 c5.409,5.508,12.136,12.378,25.23,12.378c13.227,0,20.058-6.841,25.536-12.339c4.738-4.738,7.862-7.877,14.807-7.877 c6.875,0,9.979,3.129,14.683,7.867c5.458,5.498,12.255,12.349,25.443,12.349c12.931,0,19.545-6.899,24.865-12.438 c4.896-5.113,7.743-7.778,13.918-7.778c6.707,0,9.758,3.119,14.372,7.838c5.404,5.508,12.127,12.378,25.211,12.378 c13.108,0,19.851-6.86,25.27-12.378c4.64-4.719,7.7-7.838,14.451-7.838c5.474,0,8.075,2.605,12.571,7.601 c4.787,5.331,11.356,12.615,23.834,12.615v-15.162C276.374,198.342,273.772,195.736,269.276,190.741z"/></g></svg></g><path fill="#dfe1e9" fill-rule="nonzero" d="M0 17.42L0 0.91L13.34 0.91L13.34 4.87L5.30 4.87L5.30 7.70L12.22 7.70L12.22 11.50L5.30 11.50L5.30 17.42L0 17.42ZM20.62 3.26L15.84 3.26L15.84 0.02L20.62 0.02L20.62 3.26ZM20.62 17.42L15.84 17.42L15.84 4.75L20.62 4.75L20.62 17.42ZM29.69 4.46Q32.23 4.46 34.00 5.46Q35.76 6.46 35.76 8.54L35.76 8.54L31.32 8.54Q31.32 7.85 30.70 7.56L30.70 7.56Q30.26 7.32 29.62 7.32L29.62 7.32Q27.89 7.32 27.89 8.14L27.89 8.14Q27.89 8.59 28.49 8.78Q29.09 8.98 30.46 9.19L30.46 9.19Q32.14 9.43 33.26 9.76Q34.39 10.08 35.23 10.91Q36.07 11.74 36.07 13.22L36.07 13.22Q36.07 15.65 34.26 16.68Q32.45 17.71 29.52 17.71L29.52 17.71Q27.84 17.71 26.35 17.24Q24.86 16.78 23.93 15.79Q22.99 14.81 22.99 13.30L22.99 13.30L27.43 13.30L27.43 13.39Q27.46 14.21 28.12 14.53Q28.78 14.86 29.52 14.86L29.52 14.86Q31.51 14.86 31.51 13.92L31.51 13.92Q31.51 13.44 30.89 13.22Q30.26 13.01 28.85 12.77L28.85 12.77Q27.14 12.48 26.05 12.14Q24.96 11.81 24.14 11.00Q23.33 10.20 23.33 8.76L23.33 8.76Q23.33 6.43 25.09 5.45Q26.86 4.46 29.69 4.46L29.69 4.46ZM43.10 6.07Q43.87 5.30 44.90 4.88Q45.94 4.46 47.06 4.46L47.06 4.46Q49.27 4.46 50.38 5.69Q51.48 6.91 51.48 9.22L51.48 9.22L51.48 17.42L46.70 17.42L46.70 9.79Q46.70 8.98 46.28 8.48Q45.86 7.99 45.10 7.99L45.10 7.99Q44.21 7.99 43.66 8.57Q43.10 9.14 43.10 9.98L43.10 9.98L43.10 17.42L38.33 17.42L38.33 0.02L43.10 0.02L43.10 6.07ZM69.58 5.14L64.18 5.14L64.18 17.42L58.87 17.42L58.87 5.14L53.45 5.14L53.45 0.91L69.58 0.91L69.58 5.14ZM76.70 4.46Q79.61 4.46 81.43 5.44Q83.26 6.41 83.26 8.59L83.26 8.59L83.26 13.54Q83.26 13.94 83.45 14.21Q83.64 14.47 84.02 14.47L84.02 14.47L84.89 14.47L84.89 17.23Q84.82 17.28 84.52 17.39Q84.22 17.50 83.66 17.60Q83.11 17.71 82.39 17.71L82.39 17.71Q81 17.71 80.10 17.29Q79.20 16.87 78.86 16.13L78.86 16.13Q77.95 16.85 76.82 17.28Q75.70 17.71 74.18 17.71L74.18 17.71Q69.72 17.71 69.72 14.16L69.72 14.16Q69.72 12.31 70.72 11.34Q71.71 10.37 73.58 10.01Q75.46 9.65 78.48 9.65L78.48 9.65L78.48 9.02Q78.48 8.28 77.96 7.90Q77.45 7.51 76.63 7.51L76.63 7.51Q75.89 7.51 75.35 7.78Q74.81 8.04 74.81 8.62L74.81 8.62L74.81 8.71L70.10 8.71Q70.08 8.59 70.08 8.38L70.08 8.38Q70.08 6.58 71.80 5.52Q73.51 4.46 76.70 4.46L76.70 4.46ZM78.48 11.90Q76.44 11.90 75.47 12.35Q74.50 12.79 74.50 13.54L74.50 13.54Q74.50 14.74 76.13 14.74L76.13 14.74Q77.06 14.74 77.77 14.23Q78.48 13.73 78.48 12.98L78.48 12.98L78.48 11.90ZM95.18 4.46Q97.39 4.46 98.50 5.69Q99.60 6.91 99.60 9.22L99.60 9.22L99.60 17.42L94.82 17.42L94.82 9.79Q94.82 8.98 94.40 8.48Q93.98 7.99 93.22 7.99L93.22 7.99Q92.33 7.99 91.78 8.57Q91.22 9.14 91.22 9.98L91.22 9.98L91.22 17.42L86.45 17.42L86.45 4.75L90.36 4.75L90.67 6.67Q91.42 5.66 92.63 5.06Q93.84 4.46 95.18 4.46L95.18 4.46ZM107.23 9.60L111.29 4.75L116.86 4.75L112.18 9.86L116.98 17.42L111.55 17.42L108.89 13.08L107.23 14.69L107.23 17.42L102.46 17.42L102.46 0L107.23 0L107.23 9.60Z" transform="translate(36, 9.288)"/></svg>